<svg xmlns="http://www.w3.org/2000/svg" width="27" height="24" fill="none"><path fill="#F5F5F5" d="M0 0h27v24H0z"/><path fill="#fff" d="M-874-1471H566v9071H-874z"/><path fill="#fff" d="M-502-170h696V54h-696z"/><path fill="#fff" stroke="#000" stroke-width="2" d="M-503-171h698V55h-698z"/><g fill="#000"><path d="M6 0H3v3h3V0ZM9 0H6v3h3V0ZM3 3H0v3h3V3ZM3 6H0v3h3V6ZM3 9H0v3h3V9ZM12 0H9v3h3V0ZM6 12H3v3h3v-3ZM9 15H6v3h3v-3ZM12 18H9v3h3v-3ZM21 0h3v3h-3V0ZM18 0h3v3h-3V0ZM24 3h3v3h-3V3ZM24 6h3v3h-3V6ZM24 9h3v3h-3V9ZM15 0h3v3h-3V0ZM21 12h3v3h-3v-3ZM18 15h3v3h-3v-3ZM15 18h3v3h-3v-3ZM15 3h-3v3h3V3ZM15 21h-3v3h3v-3Z"/></g></svg>